<?xml version="1.0" encoding="UTF-8" standalone="no"?>
<svg
   xmlns:dc="http://purl.org/dc/elements/1.1/"
   xmlns:cc="http://creativecommons.org/ns#"
   xmlns:rdf="http://www.w3.org/1999/02/22-rdf-syntax-ns#"
   xmlns:svg="http://www.w3.org/2000/svg"
   xmlns="http://www.w3.org/2000/svg"
   id="svg8"
   version="1.1"
   viewBox="0 0 210 297"
   height="297mm"
   width="210mm">
  <defs
     id="defs2" />
  <metadata
     id="metadata5">
    <rdf:RDF>
      <cc:Work
         rdf:about="">
        <dc:format>image/svg+xml</dc:format>
        <dc:type
           rdf:resource="http://purl.org/dc/dcmitype/StillImage" />
        <dc:title></dc:title>
      </cc:Work>
    </rdf:RDF>
  </metadata>
  <g
     id="layer1">
    <path
       id="path3719"
       d="m 30.238094,97.806546 3.023811,35.151784 26.836309,12.09524 -23.434524,18.14286 3.401785,34.01785 51.782739,-44.22321 -0.755954,-19.65476 z"
       style="fill:none;stroke:#000000;stroke-width:2.26458332px;stroke-linecap:butt;stroke-linejoin:miter;stroke-opacity:1" />
    <path
       id="path3727"
       d="m 89.391367,186.25297 c 5.249586,-6.048 13.210243,-19.07479 13.607143,-18.89881 13.4775,5.97557 21.92948,5.66591 27.01333,3.93363 8.5599,-2.91671 9.33445,-17.80591 -2.0669,-17.72975 l -19.84375,1.13392 -2.64584,-27.21428 15.30804,-1.32292 c 15.90346,-0.16756 3.73611,-32.969778 -19.84375,-10.01637 L 83.343749,101.96428 c 31.566201,-57.082972 101.545991,-3.559388 64.633931,32.31697 56.11239,40.42905 -24.52428,103.1913 -58.586313,51.97172 z"
       style="fill:none;stroke:#000000;stroke-width:2.26458332px;stroke-linecap:butt;stroke-linejoin:miter;stroke-opacity:1" />
  </g>
</svg>
